<?xml version="1.0" standalone="no"?><svg xmlns="http://www.w3.org/2000/svg" viewBox="0 0 1440 320"><path fill="#0D6EFD" fill-opacity="1" d="M0,320L21.8,304C43.6,288,87,256,131,250.7C174.5,245,218,267,262,234.7C305.5,203,349,117,393,90.7C436.4,64,480,96,524,122.7C567.3,149,611,171,655,160C698.2,149,742,107,785,90.7C829.1,75,873,85,916,106.7C960,128,1004,160,1047,160C1090.9,160,1135,128,1178,112C1221.8,96,1265,96,1309,90.7C1352.7,85,1396,75,1418,69.3L1440,64L1440,0L1418.2,0C1396.4,0,1353,0,1309,0C1265.5,0,1222,0,1178,0C1134.5,0,1091,0,1047,0C1003.6,0,960,0,916,0C872.7,0,829,0,785,0C741.8,0,698,0,655,0C610.9,0,567,0,524,0C480,0,436,0,393,0C349.1,0,305,0,262,0C218.2,0,175,0,131,0C87.3,0,44,0,22,0L0,0Z"></path></svg>